<svg viewBox="220 130 164 112" xmlns="http://www.w3.org/2000/svg" xmlns:xlink="http://www.w3.org/1999/xlink"><clipPath id="a"><path d="m299.217 151.143h5.337a.6.6 0 0 0 .6-.6v-2.47a.6.6 0 0 0 -.6-.6h-5.336a.6.6 0 0 0 -.6.6v2.47a.6.6 0 0 0 .6.6z"/></clipPath><clipPath id="b"><path d="m289.15 151.143h4.658a.6.6 0 0 0 .6-.6v-2.47a.6.6 0 0 0 -.6-.6h-4.657a.6.6 0 0 0 -.6.6v2.47a.6.6 0 0 0 .6.6z"/></clipPath><clipPath id="c"><path d="m325.549 146.306c0-3.811-2.446-7.343-6.394-10.01l-.003.002v3.785h-9.189a.6.6 0 0 0 -.6.6v2.32a.6.6 0 0 0 .6.6h9.128v11.41h-9.728v4.478c0 .44.418.773.846.667 8.874-2.199 15.34-7.654 15.34-13.852z"/></clipPath><clipPath id="d"><path d="m293.573 160.288a.688.688 0 0 0 .835-.67v-4.606h-9.727v-11.409h9.127a.6.6 0 0 0 .6-.6v-2.32a.6.6 0 0 0 -.6-.6h-9.283v-3.87h34.479a33.781 33.781 0 0 0 -17.382-4.787 33.786 33.786 0 0 0 -17.57 4.896c-3.926 2.664-6.357 6.185-6.357 9.985 0 6.321 6.728 11.873 15.878 13.981z"/></clipPath><clipPath id="e"><path d="m298.618 160.44c0 .351.27.648.62.671a35.922 35.922 0 0 0 5.305-.035.668.668 0 0 0 .61-.668v-4.796a.6.6 0 0 0 -.6-.6h-5.336a.6.6 0 0 0 -.6.6v2.732z"/></clipPath><clipPath id="f"><path d="m314.621 147.473h-4.658a.6.6 0 0 0 -.6.6v2.47a.6.6 0 0 0 .6.6h4.658a.6.6 0 0 0 .6-.6v-2.47a.6.6 0 0 0 -.6-.6z"/></clipPath><clipPath id="g"><path d="m304.554 140.083h-5.336a.6.6 0 0 0 -.6.6v2.32a.6.6 0 0 0 .6.6h5.336a.6.6 0 0 0 .6-.6v-2.32a.6.6 0 0 0 -.6-.6z"/></clipPath><clipPath id="h"><path d="m329.834 146.491c-.14 10.792-12.479 19.22-28.212 19.22s-28.072-8.428-28.212-19.22a33.785 33.785 0 0 0 -5.734 18.881c0 8.974 3.488 17.129 9.175 23.198l.161-.148c3.294-4.18 3.801-10.65 3.801-10.65 2.061.46 3.854.28 3.854.28h8.287v-4.08h-4.404c-7.55 0-7.765.32-7.768.35 0-10.62-4.089-16.162-4.089-16.162l.645-.403c2.46 2.84 7.217 5.164 7.217 5.164a37.698 37.698 0 0 1 1.111 6.719h10.629a1.9 1.9 0 0 1 1.898 1.893c.012 3.941.062 5.864.062 5.864v4.805c0 7.715.03 10.28.03 10.28h-5.927c.705-5.097.596-10.28.596-10.28h-8.259c-.93 6.034-2.732 9.126-2.732 9.126h-1.906l-.282.018a33.803 33.803 0 0 0 21.847 7.973c8.321 0 15.939-2.999 21.843-7.968l-.352-.023h-1.906s-1.802-3.092-2.732-9.126h-8.259s-.25 5.183.455 10.28h-5.785s.03-2.565.03-10.28v-4.805s.051-1.057.062-5.859a1.902 1.902 0 0 1 1.9-1.898h10.626s.185-3.245 1.111-6.718c0 0 4.757-2.325 7.217-5.164l.645.403s-4.088 5.54-4.089 16.161c-.003-.03-.217-.35-7.768-.35h-4.404v4.08h8.288s1.792.18 3.853-.28c0 0 .828 6.317 3.801 10.65l.2.185c5.708-6.074 9.21-14.243 9.21-23.235a33.783 33.783 0 0 0 -5.734-18.88z"/></clipPath><switch><g><g fill="#3e3a39"><path d="m258.853 235.286h-2.07v4.8h-.926v-4.8h-2.035v-.92h5.031zm5.487 4.799h-4.526v-5.719h4.526v.941h-3.593v1.41h3.34v.842h-3.34v1.6h3.593zm1.978 0h-.926v-5.719h.926zm6.399 0h-.975l-.365-1.129h-2.736l-.379 1.13h-.961l1.922-5.761h1.572zm-1.627-2.007-1.088-3.318-1.074 3.318zm7.585 2.007h-1.046l-1.137-1.775c-.168-.257-.353-.44-.554-.547-.224-.127-.517-.19-.877-.19h-.491v2.512h-.926v-5.719h.926v2.316l2.786-2.316h1.227l-2.898 2.436c.375.041.695.163.962.364.229.173.446.421.652.744zm5.859-2.245c0 1.525-.751 2.288-2.253 2.288h-.631c-1.497 0-2.246-.763-2.246-2.288v-1.235c0-1.52.749-2.28 2.246-2.28h.631c1.497 0 2.245.76 2.245 2.28zm-.934-.05-.007-1.136c0-.5-.101-.86-.305-1.08-.203-.22-.553-.33-1.049-.33h-.547c-.492 0-.839.106-1.042.32-.204.212-.306.576-.306 1.09v1.137c0 .505.102.868.306 1.087.203.22.548.33 1.035.33h.554c.491 0 .84-.11 1.05-.33.207-.22.311-.582.311-1.087zm7.031 2.295h-1.046l-1.136-1.775c-.169-.257-.353-.44-.555-.547-.224-.127-.516-.19-.877-.19h-.49v2.512h-.927v-5.719h.926v2.316l2.786-2.316h1.228l-2.898 2.436c.374.041.694.163.961.364.23.173.447.421.653.744zm5.599-2.182c0 .716-.147 1.252-.442 1.607-.341.412-.91.618-1.705.618h-.442c-.786 0-1.35-.204-1.691-.61-.3-.357-.45-.895-.45-1.615v-3.537h.934v3.516c0 .445.095.772.284.983.19.21.514.315.972.315h.344c.463 0 .793-.112.99-.337.181-.205.273-.526.273-.96v-3.517h.933zm6.23.716c0 .468-.152.828-.456 1.08-.336.286-.865.429-1.586.429h-1.073c-.72 0-1.254-.173-1.6-.52-.294-.304-.441-.723-.441-1.256v-.266h.933v.224c0 .272.074.482.224.632.183.177.473.266.87.266h1.109c.388 0 .666-.072.835-.218.14-.12.21-.291.21-.512v-.189c0-.257-.076-.44-.228-.547-.152-.108-.398-.162-.74-.162l-1.565-.084c-.514 0-.905-.105-1.172-.316-.28-.224-.42-.566-.42-1.024v-.28c0-.483.15-.854.449-1.116.332-.29.835-.436 1.508-.436h1.144c.594 0 1.055.146 1.382.436s.492.692.492 1.207v.273h-.927v-.176c0-.257-.07-.453-.21-.589-.16-.15-.416-.224-.772-.224h-1.123c-.37 0-.634.063-.793.19a.568.568 0 0 0 -.217.476v.147c0 .23.068.394.203.492.136.098.381.147.737.147l1.523.112c.58 0 1.008.116 1.287.348.278.231.417.572.417 1.02zm6.196 1.466h-.975l-.365-1.129h-2.736l-.38 1.13h-.96l1.922-5.761h1.572zm-1.627-2.007-1.089-3.318-1.073 3.318zm3.536 2.007h-.927v-5.719h.927zm6.181-1.487c0 .491-.135.856-.407 1.094-.3.262-.783.393-1.452.393h-3.053v-5.719h2.906c.664 0 1.148.13 1.452.386.285.24.428.602.428 1.088v.225c0 .248-.05.454-.148.617-.125.206-.339.363-.638.47.332.103.573.262.723.478.126.186.19.425.19.715zm-1.115-2.52v-.111c0-.225-.074-.394-.221-.506-.148-.112-.392-.168-.734-.168h-1.915v1.446h1.747c.416 0 .707-.052.873-.155.167-.103.25-.271.25-.505zm.126 2.38v-.127c0-.29-.092-.491-.277-.603-.185-.113-.52-.169-1.007-.169h-1.712v1.6h2.02c.346 0 .596-.057.748-.172s.228-.29.228-.53zm6.974-.618c0 1.525-.75 2.288-2.252 2.288h-.632c-1.497 0-2.245-.763-2.245-2.288v-1.235c0-1.52.748-2.28 2.245-2.28h.632c1.497 0 2.245.76 2.245 2.28zm-.933-.05-.007-1.136c0-.5-.102-.86-.305-1.08-.204-.22-.554-.33-1.05-.33h-.546c-.492 0-.84.106-1.043.32-.203.212-.305.576-.305 1.09v1.137c0 .505.102.868.305 1.087.204.22.549.33 1.035.33h.555c.491 0 .84-.11 1.049-.33.208-.22.312-.582.312-1.087zm6.729.113c0 .716-.148 1.252-.442 1.607-.341.412-.91.618-1.705.618h-.442c-.786 0-1.35-.204-1.692-.61-.299-.357-.449-.895-.449-1.615v-3.537h.934v3.516c0 .445.094.772.284.983.19.21.514.315.972.315h.344c.463 0 .792-.112.989-.337.182-.205.274-.526.274-.96v-3.517h.933zm5.74 2.182h-4.526v-5.719h4.526v.941h-3.593v1.41h3.34v.842h-3.34v1.6h3.593zm6.027 0h-1.046l-1.137-1.775c-.168-.257-.352-.44-.554-.547-.225-.127-.516-.19-.877-.19h-.491v2.512h-.926v-5.719h.926v2.316l2.786-2.316h1.227l-2.898 2.436c.375.041.695.163.962.364.23.173.446.421.652.744zm1.852 0h-.926v-5.719h.926zm10.097-2.133c0 .683-.147 1.198-.442 1.544-.365.421-.97.632-1.818.632h-.547c-.804 0-1.392-.206-1.761-.618-.346-.393-.52-.99-.52-1.789v-.99c0-.786.189-1.383.565-1.792.377-.41.949-.614 1.716-.614h.547c.8 0 1.387.2 1.762.603.332.356.498.86.498 1.516v.189h-.975v-.14c0-.37-.09-.655-.267-.857-.22-.252-.583-.379-1.088-.379h-.428c-.481 0-.835.126-1.06.376-.224.25-.336.616-.336 1.098v.99c0 .5.109.872.326 1.115.218.243.574.365 1.07.365h.428c.51 0 .868-.114 1.074-.344.182-.196.274-.512.274-.947v-.161h.982zm6.02-.112c0 1.525-.751 2.288-2.252 2.288h-.632c-1.497 0-2.245-.763-2.245-2.288v-1.235c0-1.52.748-2.28 2.245-2.28h.632c1.497 0 2.245.76 2.245 2.28zm-.933-.05-.007-1.136c0-.5-.102-.86-.305-1.08-.204-.22-.554-.33-1.05-.33h-.547c-.491 0-.838.106-1.042.32-.203.212-.305.576-.305 1.09v1.137c0 .505.102.868.305 1.087.204.22.548.33 1.035.33h.554c.492 0 .841-.11 1.05-.33.208-.22.312-.582.312-1.087zm3.353 2.295h-1.171v-1.06h1.171zm2.807-.069c0 .182-.04.355-.12.518-.079.164-.165.288-.259.373h-.723a1.31 1.31 0 0 0 .372-.39.927.927 0 0 0 .148-.502h-.744v-1.017h1.326zm5.782.069h-4.47v-5.719h.926v4.8h3.544zm5.711-4.799h-2.07v4.8h-.926v-4.8h-2.035v-.92h5.031zm5.712 2.344c0 .837-.178 1.445-.533 1.824-.394.42-1.067.631-2.021.631h-2.196v-5.719h2.196c.921 0 1.583.2 1.985.597.38.374.569.968.569 1.783zm-.927-.064v-.73c0-.56-.122-.96-.368-1.196-.245-.236-.666-.354-1.26-.354h-1.27v3.866h1.27c.6 0 1.02-.118 1.264-.354.243-.237.364-.647.364-1.232zm-151.993-20.44v1.089h1.057v1.142h-1.057v.846l1.131 1.248v1.64l-1.131-1.386v4.94h-1.175v-3.67c-.176.338-.37.652-.581.941-.212.29-.438.547-.677.773v-1.746c.296-.352.557-.783.783-1.29a5.475 5.475 0 0 0 .475-1.777v-.518h-1.258v-1.143h1.258v-1.09h1.175zm2.802.169-.073.878h.973v-1.047h1.205v1.047h1.957v1.184h-1.957v1.798h2.158v1.143h-1.766c.126.479.354.973.682 1.48.328.508.689.91 1.084 1.206v1.534c-.395-.212-.788-.582-1.18-1.11s-.717-1.125-.978-1.788v3.014h-1.205v-3.004a7.178 7.178 0 0 1 -1.064 1.75c-.433.526-.879.905-1.338 1.138v-1.534c.43-.296.825-.698 1.185-1.206.36-.507.606-1 .74-1.48h-1.766v-1.143h2.243v-1.798h-1.153c-.05.247-.1.457-.154.63-.053.173-.125.382-.217.63h-1.11c.197-.438.358-.94.481-1.508a8.537 8.537 0 0 0 .185-1.814zm13.137-.169v1.28h.952l-.212-1.28h.942l.222 1.28h.486v1.216h-2.39v.148c0 1.346.192 2.445.576 3.295.385.85.99 1.514 1.814 1.993v1.576c-1.24-.592-2.163-1.476-2.765-2.65-.604-1.173-.905-2.582-.905-4.225v-.137h-5.828v-1.217h5.828v-1.28zm-1.608 3.966v1.174h-2.136v2.961a11.92 11.92 0 0 0 1.296-.195c.377-.081.745-.188 1.105-.323v1.227c-.635.205-1.425.351-2.37.439-.944.088-2.076.132-3.395.132v-1.184l2.094-.021v-3.036h-2.094v-1.174zm-12.872 6.946h1.714c.366.62.88 1.118 1.539 1.491.66.374 1.443.62 2.353.741v1.332a8.201 8.201 0 0 1 -.29-.047 8.676 8.676 0 0 1 -.535-.132v.994h-7.816v-1.017l-.857.201v-1.332c.91-.127 1.685-.37 2.327-.73.677-.381 1.198-.881 1.565-1.502zm5.606 5.436v1.154h-6.367l-.772 1.67c1.212 0 2.187-.026 2.924-.079a10.46 10.46 0 0 0 2.026-.333l-.413-.888h1.396l1.206 2.549h-1.396l-.339-.687c-.627.225-1.35.375-2.168.449s-1.943.11-3.374.11h-2.221v-1.12h.93l.752-1.671h-1.682v-1.153zm-8.091-2.22h6.653c-1.425-.423-2.528-1.128-3.311-2.116a5.91 5.91 0 0 1 -1.428 1.264c-.55.349-1.188.633-1.915.851zm12.396-3.216v1.036h1.28v1.1c-.05.424-.177.866-.382 1.328a7.417 7.417 0 0 1 -.772 1.338l1.376 1.132v1.438l-1.46-1.29v3.427h-1.206v-3.29c-.437.41-.896.727-1.375.953v-1.47c.614-.325 1.17-.819 1.671-1.482.5-.663.804-1.336.91-2.02h-2.581v-1.164h1.333v-1.036zm4.886 0v2.591h1.851v1.29h-1.85v4.232h2.072v1.269h-5.404v-1.27h2.083v-4.23h-1.84v-1.29h1.84v-2.592z"/><path d="m248.094 239.848h-25.023v-25.024h25.023zm-24.504-.519h23.986v-23.986h-23.986zm52.23-7.216v-1.783h5.587v-3.061h-4.918v-7.823h4.918v-3.102h-5.586v-1.783h18.108v1.783h-5.565v3.102h4.876v7.823h-4.876v3.06h5.565v1.784zm7.473-1.783h3.164v-3.061h-3.164zm5.07-4.824h3.032v-4.297h-3.032zm-5.07 0h3.164v-4.297h-3.164zm-4.96 0h3.074v-4.297h-3.073zm4.96-6.06h3.164v-3.101h-3.164zm14.974 12.667v-17.553h17.098v17.15c0 .221-.18.402-.402.402h-16.696zm1.886-1.722h13.326v-14.088h-13.326zm1.536-1.885v-1.516h4.184v-3.101h-3.669v-1.475h3.669v-2.648h-4.184v-1.536h10.254v1.536h-4.163v2.648h3.648v1.475h-3.648v3.101h1.998l-.454-2h1.407l.516 2h.697v1.516zm34.447 3.854-.765-3.845h1.632l.765 3.845zm-6.25 0v-1.927h.706c.533 0 .84-.276.84-.758v-2.633h-4.762v-1.7h10.915v1.7h-4.288v3.376c0 .682-.156 1.182-.465 1.485-.31.303-.78.457-1.395.457zm-3.783 0c.22-.446.417-1.012.592-1.686.196-.76.333-1.484.409-2.159h1.698a18.787 18.787 0 0 1 -.364 2.125c-.16.691-.345 1.269-.55 1.72zm-5.987 0v-17.8h5.349v1.985l-.984 5.025.063.073c.406.471.702.996.879 1.558.178.57.268 1.284.268 2.125v1.567c0 1.068-.275 1.89-.818 2.446-.55.562-1.241.836-2.114.836h-1.025v2.185zm1.618-4.112h.716c.555 0 .971-.163 1.237-.485.256-.31.386-.763.386-1.345v-1.071c0-.814-.09-1.523-.266-2.11a4.132 4.132 0 0 0 -.833-1.517l.952-5.334h-2.192zm4.668-6.19a7.901 7.901 0 0 0 1.019-.53c.35-.216.712-.49 1.078-.813l.18-.159-2.04-1.621-.127.127a1.445 1.445 0 0 1 -.254.197v-1.84c.464-.3.77-.711 1.08-1.224.3-.494.58-1.044.668-1.634h5.33c.174 1.616.685 3.083 1.52 4.361l1.334-2.99h-1.91v-1.371h3.552v1.856l-1.896 3.96.098.101c.57.584 1.174 1.08 1.798 1.476v2.134c-.93-.442-1.781-1.096-2.535-1.946l-.35-.395v1.73h-5.589v-1.605l-.079.32c-.47.443-.978.845-1.508 1.194-.441.29-.9.537-1.369.736zm5.838-4.35a14.03 14.03 0 0 1 -.955 1.94c-.362.61-.805 1.214-1.318 1.794l-.295.333h5.247l-.252-.324a13.89 13.89 0 0 1 -2.052-3.738l-.18-.49zm-4.21-.215a2.98 2.98 0 0 1 -.281.386c-.117.137-.178.163-.178.163l1.959 1.592-.004.075c.255-.285.313-.429.499-.756l.086-.152-1.966-1.5zm.764-1.294 1.92 1.55a4.16 4.16 0 0 0 .304-.682c.105-.296.194-.617.265-.955l.051-.242h-2.397zm28.558 16.161-1.525-1.67h-9.803l-.06.091a6.815 6.815 0 0 1 -.78.981c-.188.213-.391.412-.609.598h-2.458a7.9 7.9 0 0 0 1.408-1.34l.274-.33h-1.629v-9.018h17.098v9.019h-1.141l1.423 1.67h-2.198zm-13.07-2.938h12.873v-1.329h-12.873zm0-2.576h12.873v-1.35h-12.873zm0-2.618h12.873v-1.328h-12.873zm4.234-3.617-.23-.946-.23.125c-.58.317-1.283.524-2.09.617-.8.091-2.243.139-4.291.142v-1.639h.495v-3.999h1.118c3.114 0 5.246-.195 6.498-.597v1.467c-.68.217-1.375.365-2.067.44-.748.082-1.878.124-3.359.124h-.2v2.544h.2c1.522 0 2.681-.187 3.447-.555l.142-.07-.248-1.148h1.547l.758 3.496h-1.49zm2.662-1.872c.95-.427 1.532-1.236 1.728-2.408l.04-.234h-1.768v-1.536h8.09v3.406c0 .86-.208 1.5-.62 1.896-.412.4-1.017.604-1.797.604h-1.923v-1.599h1.325c.312 0 .58-.1.796-.3a1.03 1.03 0 0 0 .332-.786v-1.685h-2.793l-.019.18c-.119 1.136-.492 2.096-1.11 2.852-.567.693-1.333 1.19-2.282 1.48v-1.87zm19.395 11.672c.972-.241 1.872-.736 2.677-1.474a8.06 8.06 0 0 0 1.88-2.578l.133-.285h-3.015l-.056.11c-.725 1.45-1.78 2.709-3.137 3.744a12.036 12.036 0 0 1 -4.769 2.121v-1.896a8.49 8.49 0 0 0 3.241-1.311c1.002-.68 1.815-1.508 2.417-2.46l.195-.308h-2.855l-.058.052c-.947.873-2.157 1.557-3.6 2.037v-2.026c.869-.255 1.627-.645 2.256-1.16a6.12 6.12 0 0 0 1.599-2.014l.144-.29h-3.071v-8.112h16.274v8.112h-11.3l-.047.135a5.578 5.578 0 0 1 -.616 1.294l-.208.312h12.934v4.54c0 1.187-.29 2.06-.864 2.595-.577.538-1.474.812-2.666.812h-2.211v-2.031h1.88c.574 0 1.036-.164 1.376-.489.342-.326.516-.784.516-1.36v-2.407h-2.361l-.049.131a10.096 10.096 0 0 1 -2.627 3.942c-1.194 1.104-2.542 1.851-4.012 2.222zm-4.009-9.172h12.254v-1.906h-12.254zm0-3.339h12.254v-1.926h-12.254z"/></g><g fill="#d18e04"><path clip-path="url(#a)" d="m298.618 147.473h6.536v3.67h-6.536z"/><circle clip-path="url(#a)" cx="301.886" cy="149.308" r="2.65"/><circle clip-path="url(#a)" cx="301.886" cy="149.308" r="1.325"/><path clip-path="url(#b)" d="m288.55 147.473h5.858v3.67h-5.857z"/><circle clip-path="url(#b)" cx="291.479" cy="149.308" r="2.444"/><circle clip-path="url(#b)" cx="291.479" cy="149.308" r="1.222"/><path clip-path="url(#c)" d="m309.363 136.298h16.186v24.058h-16.186z"/><path clip-path="url(#c)" d="m321.547 146.31c0 5.501-2.23 10.483-5.836 14.088a19.959 19.959 0 0 1 -6.333 4.27v-3.7h-.626v-25.28h6.96v-3.468a19.863 19.863 0 0 1 5.835 14.09z"/><path clip-path="url(#c)" d="m311.585 146.31a9.931 9.931 0 0 1 -2.918 7.044h.085v-14.09h-.085a9.932 9.932 0 0 1 2.918 7.045z"/><path clip-path="url(#d)" d="m277.696 131.426h41.308v29.044h-41.308z"/><path clip-path="url(#d)" d="m321.547 146.31c0 5.501-2.23 10.483-5.836 14.088a19.959 19.959 0 0 1 -6.333 4.27v-3.587h-15.511v3.588a19.957 19.957 0 0 1 -6.334-4.27 19.862 19.862 0 0 1 -5.836-14.09c0-5.502 2.23-10.483 5.836-14.089a19.957 19.957 0 0 1 6.334-4.27v2.865h15.51v-2.865a19.957 19.957 0 0 1 6.334 4.27 19.863 19.863 0 0 1 5.836 14.09z"/><circle clip-path="url(#d)" cx="301.622" cy="146.309" r="9.963"/><path clip-path="url(#e)" d="m298.618 155.012h6.536v6.18h-6.536z"/><path clip-path="url(#e)" d="m305.765 154.401v7.403h-7.759v-7.403z"/><path clip-path="url(#e)" d="m305.765 154.401 2.902-1.047c-1.803 1.803-4.294 2.918-7.045 2.918s-5.241-1.115-7.044-2.918l3.428 1.047z"/><path clip-path="url(#f)" d="m309.363 147.473h5.858v3.67h-5.858z"/><circle clip-path="url(#f)" cx="312.292" cy="149.308" r="2.444"/><circle clip-path="url(#f)" cx="312.292" cy="149.308" r="1.222"/><path clip-path="url(#g)" d="m298.618 140.083h6.536v3.52h-6.537z"/><circle clip-path="url(#g)" cx="301.886" cy="141.843" r="2.625"/><circle clip-path="url(#g)" cx="301.886" cy="141.843" r="1.312"/><path clip-path="url(#h)" d="m267.676 146.491h67.892v52.827h-67.892z"/><circle clip-path="url(#h)" cx="301.622" cy="172.905" r="30.414"/><circle clip-path="url(#h)" cx="301.622" cy="172.905" r="15.207"/></g><path d="m259.692 218.055h6.442v1.556h-6.442zm0 2.535h6.442v1.556h-6.442zm0-5.008h6.442v1.494h-6.442z" fill="none"/><path d="m266.185 226.994v-1.44h5.277v-11.076h-2.01v9.622h-5.256v8.26h1.989v-3.747h5.792v-1.62zm-9.812-12.516h-2.009v11.076h5.318v1.44h-5.813v1.619h5.813v3.747h1.989v-8.26h-5.298z" fill="#1a1a1a"/><path d="m268.02 214.56h-10.214v8.546h10.214zm-1.886 7.586h-6.442v-1.555h6.442zm0-2.535h-6.442v-1.556h6.442zm0-2.535h-6.442v-1.494h6.442zm-12.027 15.284h1.972c.254-.362.473-.758.65-1.176.194-.454.368-1.785.516-2.416l.036-.155h-1.897l-.057.246c-.244 1.05-.653 2.743-1.22 3.501zm17.489 0h-1.972a6.526 6.526 0 0 1 -.65-1.176c-.194-.454-.367-1.785-.515-2.416l-.037-.155h1.897l.058.246c.243 1.05.653 2.743 1.22 3.501z" fill="#1a1a1a"/></g></switch></svg>